<svg fill="none" height="24" viewBox="0 0 24 24" width="24" xmlns="http://www.w3.org/2000/svg"><path d="m16.19 2h-8.38c-3.64 0-5.81 2.17-5.81 5.81v8.37c0 3.65 2.17 5.82 5.81 5.82h8.37c3.64 0 5.81-2.17 5.81-5.81v-8.38c.01-3.64-2.16-5.81-5.8-5.81zm-9.69 10.57h2.77c.41 0 .75.34.75.75s-.34.75-.75.75h-2.77c-.41 0-.75-.34-.75-.75s.34-.75.75-.75zm6.47 5.26h-6.47c-.41 0-.75-.34-.75-.75s.34-.75.75-.75h6.47c.41 0 .75.34.75.75s-.33.75-.75.75zm4.53 0h-1.85c-.41 0-.75-.34-.75-.75s.34-.75.75-.75h1.85c.41 0 .75.34.75.75s-.34.75-.75.75zm0-3.76h-5.53c-.41 0-.75-.34-.75-.75s.34-.75.75-.75h5.53c.41 0 .75.34.75.75s-.34.75-.75.75z" fill="#292d32"/></svg>